<svg xmlns="http://www.w3.org/2000/svg" width="1000" height="420" viewBox="0 0 1000 420">
  <rect width="1000" height="420" fill="#f4f7fb"/>
  <g font-family="Microsoft YaHei, Arial" text-anchor="middle">
    <rect x="40" y="160" width="140" height="80" rx="18" fill="#2457e6"/><text x="110" y="205" fill="white" font-size="18" font-weight="700">学生提问</text>
    <rect x="230" y="80" width="140" height="80" rx="18" fill="#ffffff" stroke="#b8c7e6"/><text x="300" y="125" fill="#172033" font-size="17" font-weight="700">学生Agent</text><text x="300" y="150" fill="#667085" font-size="13">画像构建</text>
    <rect x="430" y="80" width="140" height="80" rx="18" fill="#ffffff" stroke="#b8c7e6"/><text x="500" y="125" fill="#172033" font-size="17" font-weight="700">规划师Agent</text><text x="500" y="150" fill="#667085" font-size="13">资源调度</text>
    <rect x="630" y="80" width="140" height="80" rx="18" fill="#ffffff" stroke="#b8c7e6"/><text x="700" y="125" fill="#172033" font-size="17" font-weight="700">老师Agent</text><text x="700" y="150" fill="#667085" font-size="13">资料生成</text>
    <rect x="430" y="260" width="140" height="80" rx="18" fill="#ffffff" stroke="#b8c7e6"/><text x="500" y="305" fill="#172033" font-size="17" font-weight="700">知识库校验</text><text x="500" y="330" fill="#667085" font-size="13">降低幻觉</text>
    <rect x="630" y="260" width="140" height="80" rx="18" fill="#ffffff" stroke="#b8c7e6"/><text x="700" y="305" fill="#172033" font-size="17" font-weight="700">评估Agent</text><text x="700" y="330" fill="#667085" font-size="13">反馈补救</text>
    <rect x="820" y="160" width="140" height="80" rx="18" fill="#11a36a"/><text x="890" y="195" fill="white" font-size="17" font-weight="700">个性化资源</text><text x="890" y="220" fill="white" font-size="13">图文/视频/代码/题</text>
    <g stroke="#8aa2d8" stroke-width="3" fill="none" marker-end="url(#arrow)">
      <path d="M180 200 C205 160 210 130 230 120"/>
      <path d="M370 120 L430 120"/>
      <path d="M570 120 L630 120"/>
      <path d="M700 160 C700 210 580 230 520 260"/>
      <path d="M570 300 L630 300"/>
      <path d="M770 300 C820 280 835 245 850 240"/>
      <path d="M770 120 C820 130 835 155 850 160"/>
    </g>
  </g>
  <defs><marker id="arrow" viewBox="0 0 10 10" refX="9" refY="5" markerWidth="6" markerHeight="6" orient="auto-start-reverse"><path d="M 0 0 L 10 5 L 0 10 z" fill="#8aa2d8"/></marker></defs>
</svg>